<svg width="1780" height="1745" viewBox="0 0 1780 1745" fill="none" xmlns="http://www.w3.org/2000/svg">
<path d="M1107.17 1056.95C1006.14 1366.67 736.251 1462.32 593.542 1077.63C573.917 1024.72 625.23 1005.03 661.115 981.753C685.695 965.807 698.607 951.979 697.11 937.723C690.045 870.466 659.456 683.346 659.456 683.346L656.345 677.317C656.345 677.317 657.091 675.628 654.163 678.616C651.111 681.732 644.073 714.267 616.336 714.267C591.469 714.267 566.222 702.897 554.141 624.213C549.768 595.738 552.249 521.087 583.056 507.606C595.787 502.036 607.531 500.045 618.988 506.73C630.445 513.415 605.77 483.879 733.197 375.26C816.027 304.657 946.863 294.309 999.656 306.23C1052.45 318.15 1105.24 344.583 1128.59 400.559C1156.93 468.478 1102.2 519.766 1114.22 674.448C1112.03 730.334 1115.16 852.99 964.808 894.1C936.252 901.908 945.111 944.581 987.945 955.012C1056.27 976.919 1107.22 1030.4 1107.22 1057.09" fill="white"/>
<path fill-rule="evenodd" clip-rule="evenodd" d="M1107.21 575.513L1107.37 574.058C1111.59 536.08 1115.69 499.277 1135.05 466.221C1141.64 470.832 1140.87 476.676 1138.81 482.091C1118.5 535.503 1120.36 590.993 1122.23 646.454C1122.39 651.311 1122.55 656.169 1122.7 661.024C1124.82 730.318 1107.93 793.311 1062.75 846.249C1047.08 864.621 1026.32 877.26 1005.13 888.297C983.371 899.633 978.797 909.251 985.586 933.731C985.834 934.624 986.139 935.521 986.444 936.421C987.835 940.512 989.243 944.657 985.382 948.701C980.77 953.531 975.733 952.153 970.284 950.662C970.077 950.605 969.871 950.549 969.663 950.492C918.323 936.487 872.394 911.361 829.926 879.272C823.892 874.713 818.928 868.493 814.124 862.474L814.124 862.474L813.813 862.084C811.284 858.916 810.837 853.973 814.375 851.179C817.686 848.564 820.292 850.708 823.191 853.094C823.561 853.399 823.936 853.707 824.317 854.01C847.234 872.201 872.471 884.144 902.042 887.148C915.716 888.538 929.251 888.025 942.774 887.513L942.776 887.513C950.384 887.225 957.988 886.937 965.611 886.988C976.054 887.058 984.632 882.103 992.8 877.385C993.77 876.825 994.735 876.267 995.697 875.722C1024.09 859.611 1051.06 841.547 1069.36 812.445C1085.77 786.367 1095.71 757.961 1101.56 728.067C1108.94 690.333 1108.27 652.185 1107.6 613.505C1107.37 600.899 1107.15 588.236 1107.21 575.513ZM593.964 496.884C616.291 495.048 628.727 508.577 639.197 524.245C652.074 543.515 658.934 565.358 661.973 588.419C662.483 592.287 663.012 596.4 660.731 600.19C656.228 600.809 655.802 597.154 655.733 594.412C655.166 572.847 645.814 554.034 636.414 535.827C629.705 522.838 619.842 510.253 604.426 507.058C586.851 503.414 570.685 519.564 562.739 540.715C548.022 579.892 550.462 618.449 564.155 656.419C570.146 673.034 577.61 689.96 592.555 701.553C607.689 713.293 625.909 711.222 637.02 695.631C637.655 694.739 638.327 693.857 639.001 692.973L639.001 692.973C641.037 690.3 643.088 687.606 644.185 684.574C646.334 678.628 649.618 672.974 655.635 673.802C662.593 674.761 663.912 682.466 664.562 688.485C670.476 743.177 678.686 797.521 686.898 851.872L686.898 851.872C688.935 865.357 690.973 878.842 692.975 892.332C695.627 910.181 698.698 935.816 696.638 946.719C696.493 947.493 696.409 948.256 696.329 948.985C696.014 951.839 695.756 954.188 692.095 954.751C687.126 955.517 684.88 952.571 684.27 948.002C681.904 930.262 681.251 923.454 680.233 896.319C679.247 870.015 674.413 844.088 669.581 818.167C667.828 808.762 666.074 799.358 664.505 789.936C659.161 757.852 653.929 725.312 653.459 688.775C652.749 689.851 652.054 690.912 651.37 691.956C643.673 703.712 637.389 713.308 626.391 717.045C608.135 723.252 592.162 718.657 579.367 703.901C564.783 687.083 555.311 667.945 549.982 645.715C541.503 610.341 539.932 575.688 550.929 540.727C556.2 523.954 575.102 494.155 593.964 496.884ZM629.314 629.888C633.771 633.165 637.812 636.137 641.539 624.278C640.34 580.157 626.513 551.994 604.966 550.928C616.464 566.121 627.491 580.951 628.422 601.521C623.599 599.274 620.496 595.739 617.522 592.351C615.451 589.992 613.442 587.703 610.958 585.972C609.9 585.233 608.864 584.417 607.82 583.593C602.999 579.791 597.994 575.843 589.667 578.806C593.573 584.887 598.952 589.18 604.28 593.431C610.432 598.341 616.516 603.195 620.182 610.687C609.356 618.659 604.698 629.152 610.316 641.817C615.19 652.806 622.398 661.886 636.676 662.548C636.143 655.951 631.885 651.149 627.748 646.484C622.718 640.81 617.866 635.338 620.104 627.081C623.367 625.515 626.427 627.765 629.314 629.888Z" fill="black"/>
<path d="M1524.07 1612.35L189.409 1613.24C189.409 1613.24 263.791 1324.4 283.61 1291.26C303.428 1258.13 383.093 1146.55 382.213 1127.6C381.332 1108.66 383.732 1041.3 397.179 1014.64C410.626 987.981 453.524 951.491 470.251 948.822C486.978 946.153 543.323 943.486 578.538 934.592C613.754 925.698 646.279 914.718 682.064 914.718C687.878 914.718 682.252 927.585 682.252 927.585C682.252 927.585 684.109 1053.68 850.327 1061.59C974.251 1067.48 1015.3 940.38 1015.3 940.38C1015.3 940.38 988.069 915.903 996.337 915.187C1093.81 906.747 1144.98 928.809 1174.55 934.592C1201.85 939.928 1224.74 939.928 1252.03 959.496C1283.32 981.933 1299.49 1032.7 1334.5 1110.51C1374.63 1199.71 1532.56 1470.42 1524.05 1612.94" fill="black"/>
<path fill-rule="evenodd" clip-rule="evenodd" d="M1205.91 1616.33C1205.15 1598.82 1204.77 1581.32 1204.39 1563.81C1203.57 1525.46 1202.74 1487.12 1197.85 1448.76C1193.36 1413.6 1188.2 1378.49 1182.55 1343.6C1173.27 1286.23 1160.81 1229.35 1148.28 1172.58C1143.97 1153.03 1136.57 1133.94 1128.61 1115.51C1122.81 1102.06 1117.95 1088.26 1113.08 1074.46C1107.51 1058.65 1101.94 1042.85 1094.96 1027.57C1093.73 1024.89 1092.2 1022.45 1090.61 1019.94C1087.65 1015.24 1084.53 1010.29 1082.97 1003.01C1034.55 1099.38 960.132 1149.34 855.269 1149.8C752.067 1150.26 675.704 1102.2 620.136 1015.44C611.342 1022.6 607.342 1032.85 603.696 1042.19C603.24 1043.36 602.79 1044.51 602.336 1045.64C583.362 1092.98 565.562 1140.61 560.032 1192.32C556.835 1222.21 552.286 1252.08 547.745 1281.91L547.743 1281.92C547.146 1285.84 546.549 1289.76 545.955 1293.68C538.895 1340.3 532.751 1387.19 529.357 1434.34C525.044 1494.25 520.458 1554.13 515.688 1615.18C510.906 1616.34 506.429 1616.34 500.833 1616.34C504.426 1590.82 505.322 1564.83 506.138 1539.12C507.765 1487.84 513.57 1437.06 519.38 1386.24L519.38 1386.24C520.975 1372.29 522.571 1358.33 524.08 1344.36C527.208 1315.41 531.323 1286.61 535.438 1257.81L535.438 1257.81C539.493 1229.44 543.547 1201.06 546.657 1172.54C551.608 1127.13 568.976 1084.63 587.358 1042.9L588.209 1040.97C598.84 1016.81 609.438 992.737 626.472 972.314C639.644 956.528 654.535 942.461 672.209 932.012C686.388 923.629 691.025 925.423 695.803 941.317C705.558 973.766 722.607 1001.64 750.154 1020.61C793.77 1050.64 840.996 1064.21 894.31 1048.41C931.478 1037.4 962.214 1018.37 984.345 986.288C992.914 973.864 1000.65 960.565 1003.24 944.961C1001.31 944.216 999.412 943.506 997.541 942.806L997.541 942.806C993.127 941.156 988.863 939.561 984.719 937.689L984.667 937.665C981.662 936.308 977.809 934.567 979.415 930.013C980.657 926.487 983.616 923.925 987.454 924.464C1021.23 929.176 1053.25 936.614 1075.6 966.912C1096.5 995.237 1111.78 1025.77 1123.86 1058.97C1126.4 1065.97 1128.98 1072.95 1131.55 1079.94L1131.56 1079.96C1144.37 1114.75 1157.17 1149.52 1166.6 1185.44C1170.32 1199.62 1173.13 1214.05 1175.94 1228.48L1175.94 1228.48L1175.94 1228.49C1177.14 1234.63 1178.33 1240.77 1179.6 1246.89C1181.29 1255.06 1183.08 1263.21 1184.87 1271.37C1188.99 1290.11 1193.11 1308.85 1195.99 1327.79C1197.97 1340.82 1200.16 1353.81 1202.34 1366.81L1202.34 1366.82C1208.55 1403.8 1214.76 1440.8 1216.39 1478.46C1217.19 1497.02 1218.53 1515.54 1219.88 1534.07L1219.88 1534.08L1219.88 1534.08C1221.01 1549.67 1222.14 1565.26 1222.94 1580.87C1223.38 1589.35 1222.54 1597.91 1221.66 1606.78V1606.78V1606.78C1221.37 1609.67 1221.08 1612.6 1220.84 1615.58C1215.89 1616.23 1210.9 1616.48 1205.91 1616.33ZM1017.09 955.46L1017.08 955.492C1009.04 974.549 1001.01 993.582 987.206 1009.51C952.227 1049.88 906.887 1068.35 855.226 1069.83C820.459 1070.84 786.325 1063.59 756.344 1044.1C727.17 1025.13 702.234 1002.07 690.018 967.643C689.577 966.4 689.159 965.127 688.738 963.844C686.762 957.824 684.72 951.603 679.92 947.36C666.467 950.462 662.884 958.976 665.079 971.033C665.438 972.996 665.707 974.99 665.976 976.983V976.983C666.533 981.103 667.09 985.222 668.429 989.061C681.185 1025.61 706.091 1052.44 738.074 1072.02C763.245 1087.43 790.512 1097.67 820.529 1101.46C882.099 1109.21 939.392 1100.91 990.191 1062.49C1021.12 1039.09 1040.05 1008.16 1044.6 969.143C1046.41 953.651 1037.29 946.496 1019.44 949.905H1019.44C1018.65 951.755 1017.87 953.608 1017.09 955.46ZM648.618 971.782C669.025 1056.4 727.11 1096.98 805.409 1114.74C845.208 1124.91 882.924 1123.17 920.817 1113.23C962.979 1102.17 1000 1082.98 1027.67 1048.17C1044.66 1026.78 1057.17 1003.13 1057.61 974.345C1072.9 982.416 1074.47 987.903 1064.24 1007.26C1041.3 1050.68 1008.7 1085.62 965.66 1108.22C918.312 1133.09 867.379 1139.6 814.099 1131.5C758.848 1123.09 713.377 1096.74 673.594 1058.88C659.276 1045.25 648.474 1028.64 637.697 1012.07C635.401 1008.54 633.106 1005.01 630.778 1001.52C628.006 997.35 629.848 994.03 632.522 990.844C636.103 986.577 639.702 982.324 643.447 977.897C645.137 975.9 646.856 973.867 648.618 971.782Z" fill="white"/>
<path fill-rule="evenodd" clip-rule="evenodd" d="M401.644 1616.33C406.243 1600.44 407.973 1583.98 409.707 1567.49L409.707 1567.49C410.578 1559.21 411.449 1550.93 412.684 1542.7C413.614 1536.5 414.516 1530.3 415.418 1524.1L415.419 1524.1L415.419 1524.1C419.048 1499.14 422.675 1474.2 428.128 1449.49C429.694 1442.39 431.375 1435.31 433.056 1428.23C436.315 1414.51 439.577 1400.77 442.019 1386.81C446.019 1363.03 452.985 1339.86 462.751 1317.85C477.95 1284.27 484.951 1248.98 485.47 1212.54C485.73 1194.32 487.987 1176.35 490.243 1158.39C491.924 1145 493.605 1131.62 494.46 1118.13C496.073 1092.7 494.85 1067.53 493.331 1040.16C489.47 1043.31 485.751 1046.39 482.112 1049.41C474.457 1055.76 467.156 1061.82 459.63 1067.57C415.944 1100.99 381.805 1143.1 352.657 1189.38C341.282 1207.44 331.754 1226.62 322.232 1245.79C318.391 1253.52 314.55 1261.25 310.59 1268.91C294.3 1300.39 281.733 1333.3 269.534 1366.14C267.348 1372.03 265.141 1377.91 262.932 1383.8L262.932 1383.8C244.738 1432.3 226.45 1481.05 219.29 1532.8C217.236 1547.63 213.24 1561.89 209.21 1576.27C205.635 1589.03 202.032 1601.88 199.732 1615.32C194.075 1616.33 188.744 1616.33 182.27 1616.33C183.214 1612.98 184.164 1609.63 185.115 1606.27L185.115 1606.27C193.74 1575.84 202.405 1545.27 206.816 1513.42C209.044 1497.33 213.635 1481.53 218.207 1465.8C219.259 1462.18 220.31 1458.57 221.33 1454.95C225.841 1438.98 231.709 1423.49 237.582 1407.99C242.68 1394.53 247.781 1381.06 252 1367.27C257.005 1350.9 263.743 1335.07 270.477 1319.24L270.477 1319.24C272.957 1313.41 275.437 1307.58 277.829 1301.73C294.827 1260.15 315.987 1220.63 338.071 1181.71L338.388 1181.15C345.907 1167.9 353.649 1154.25 364.962 1143.29C373.765 1134.77 374.276 1123.7 374.783 1112.72C374.975 1108.55 375.167 1104.39 375.811 1100.39C376.265 1097.58 376.712 1094.76 377.159 1091.94C382.345 1059.21 387.553 1026.33 403.943 997.229C421.042 966.862 449.384 950.053 482.569 941.909C506.582 935.981 531.067 932.218 555.737 930.663C565.897 930.028 575.872 926.764 585.874 923.491C591.25 921.732 596.634 919.971 602.057 918.614C607.189 917.33 612.3 915.933 617.413 914.535C636.88 909.215 656.357 903.891 676.96 904.798C677.321 904.814 677.685 904.827 678.05 904.839C682.205 904.981 686.458 905.126 687.135 910.459C687.809 915.776 684.211 916.453 680.465 917.157C679.792 917.284 679.114 917.411 678.456 917.566C664.18 920.921 649.922 924.359 635.664 927.798L635.661 927.798C608.696 934.301 581.732 940.804 554.645 946.737C542.852 949.321 530.649 950.118 518.492 950.912C515.477 951.109 512.466 951.305 509.464 951.529C500.788 952.176 492.503 953.315 485.256 958.081C511.574 974.658 527.05 997.061 526.611 1028.97C526.35 1047.85 527.108 1066.72 527.866 1085.58V1085.58C528.865 1110.45 529.864 1135.32 528.529 1160.2C526.795 1192.61 523.149 1224.78 518.42 1256.97C515.675 1275.66 513.552 1294.48 511.43 1313.3L511.43 1313.3C509.428 1331.04 507.428 1348.78 504.907 1366.39C502.387 1383.99 500.697 1401.65 499.007 1419.29L499.006 1419.29C497.442 1435.63 495.878 1451.96 493.658 1468.23C491.057 1487.3 489.165 1506.47 487.273 1525.64C485.637 1542.21 484.001 1558.78 481.907 1575.29C481.373 1579.5 481.119 1583.75 480.863 1588.03L480.863 1588.03C480.328 1596.97 479.784 1606.07 476.664 1615.32C470.962 1616.31 465.14 1616.35 459.425 1615.44C468.213 1580.77 472.339 1545.73 476.412 1511.15C476.538 1510.08 476.663 1509.01 476.789 1507.95L476.879 1507.19C478.885 1490.18 480.358 1473.1 481.831 1456.01C484.232 1428.16 486.634 1400.29 491.349 1372.71C493.25 1361.58 494.099 1350.36 494.949 1339.13V1339.13C496.05 1324.58 497.151 1310.04 500.539 1295.71C509.027 1259.81 511.759 1222.86 513.745 1186.29C516.673 1132.41 517.398 1078.26 514.13 1024.29C513.093 1007.17 509.438 989.793 494.197 975.842C495.804 980.952 497.617 985.841 499.38 990.599L499.38 990.599C503.131 1000.72 506.66 1010.24 507.523 1020C510.024 1048.29 510.238 1076.89 509.752 1105.33C509.185 1138.56 505.587 1171.56 501.988 1204.57L501.988 1204.58C500.744 1215.99 499.5 1227.4 498.381 1238.82C494.719 1276.19 489.486 1313.34 484.254 1350.49L484.253 1350.49L484.253 1350.49C481.921 1367.04 479.589 1383.6 477.397 1400.17C475.415 1415.15 473.884 1430.17 472.354 1445.18C470.51 1463.28 468.668 1481.35 466.039 1499.33C464.374 1510.71 463.365 1522.17 462.355 1533.63C460.675 1552.71 458.994 1571.8 454.288 1590.54C453.974 1591.78 453.62 1593.05 453.261 1594.34C451.31 1601.33 449.209 1608.86 452.707 1616.33C447.014 1616.47 441.32 1616.13 435.683 1615.31C436.425 1607.23 437.672 1599.51 438.904 1591.88L438.904 1591.88C439.998 1585.1 441.08 1578.4 441.788 1571.58C443.247 1557.53 444.811 1543.48 446.376 1529.44L446.377 1529.43L446.377 1529.43C448.106 1513.91 449.836 1498.38 451.424 1482.84C454.477 1452.95 458.444 1423.16 462.411 1393.37L462.412 1393.36C464.103 1380.66 465.795 1367.96 467.416 1355.24C465.498 1363.6 463.018 1371.84 460.542 1380.06L460.542 1380.06C456.987 1391.86 453.439 1403.64 451.57 1415.74C448.901 1433.01 445.365 1450.11 441.828 1467.21L441.827 1467.21C437.227 1489.46 432.624 1511.71 429.927 1534.37C428.997 1542.18 427.871 1549.97 426.745 1557.75L426.745 1557.75C423.937 1577.17 421.131 1596.57 421.371 1616.33H401.644ZM463.11 1044.42C469.405 1037.75 476.105 1031.52 484.012 1026.89C490.857 1022.89 492.73 1016.61 490.308 1010.01C489.147 1006.85 488.662 1003.36 488.177 999.857C487.051 991.746 485.921 983.598 476.344 979.447C471.243 977.236 466.317 979.204 462.825 981.811C456.261 986.712 449.43 992.16 445.007 998.918C427.482 1025.69 417.807 1055.84 408.652 1090.04C419.82 1078.73 431.235 1069.83 442.619 1060.96L442.621 1060.96C449.481 1055.61 456.331 1050.27 463.11 1044.42ZM424.744 1003.15C414.715 1027.42 404.688 1051.69 402.263 1078.35C402.01 1091.98 396.578 1101.38 390.638 1110.63C391.96 1104.47 393.204 1098.29 394.448 1092.11C401.397 1057.59 408.345 1023.08 428.929 992.96C427.548 996.36 426.146 999.753 424.744 1003.15Z" fill="white"/>
<path fill-rule="evenodd" clip-rule="evenodd" d="M1484.98 1466.47C1500.94 1514.99 1509.33 1565.55 1516.87 1616.33C1522.39 1616.33 1526.8 1616.33 1531.52 1615.21C1527.57 1574.65 1518.76 1536.08 1509.95 1497.56L1509.83 1497.01C1505.68 1478.88 1499.9 1461.22 1494.11 1443.55C1492.42 1438.39 1490.73 1433.23 1489.08 1428.06C1475.69 1386.1 1462 1344.33 1445.15 1303.67C1436.29 1282.27 1425.41 1262.03 1414.49 1241.73C1409.81 1233.03 1405.47 1224.14 1401.14 1215.25C1391.66 1195.85 1382.19 1176.44 1369.19 1159.02C1367.85 1157.22 1366.45 1155.42 1365.04 1153.6C1359.17 1146.04 1353.15 1138.29 1350.39 1129.6C1339.04 1093.84 1326.03 1058.73 1313.02 1023.63C1305.44 1003.17 1295.03 983.839 1280.07 968.034C1259.55 946.36 1231.89 938.536 1204.52 931.892C1181.44 926.29 1158.16 921.562 1134.87 916.835C1121.34 914.087 1107.8 911.338 1094.3 908.418C1059.94 901.089 1024.71 899.011 989.748 902.25C984.223 902.736 979.732 904.034 977.746 913.14C992.382 914.854 1007.03 915.256 1021.65 915.657C1046.02 916.325 1070.33 916.992 1094.44 923.725C1119.84 930.817 1145.73 936.426 1172.36 942.195C1184.88 944.907 1197.56 947.655 1210.43 950.609C1201.26 960.628 1200.96 970.603 1200.66 980.491C1200.61 982.057 1200.56 983.62 1200.48 985.181C1199.71 999.632 1201.89 1013.77 1204.05 1027.84C1205.54 1037.56 1207.03 1047.24 1207.54 1056.98C1209.98 1103.24 1217.2 1148.72 1224.43 1194.18C1224.89 1197.07 1225.35 1199.96 1225.81 1202.85C1229.29 1224.82 1231.83 1246.89 1234.37 1268.97C1236.63 1288.6 1238.89 1308.23 1241.81 1327.78C1246.6 1359.79 1248.32 1392.1 1250.05 1424.42C1251.22 1446.4 1252.39 1468.37 1254.53 1490.27C1256.65 1512 1258.17 1533.8 1259.7 1555.61C1261.12 1575.85 1262.54 1596.1 1264.43 1616.34H1276.24C1275.71 1565.63 1272.03 1515.11 1268.35 1464.59C1266.46 1438.67 1264.57 1412.74 1263.11 1386.8C1261.9 1365.26 1258.94 1343.73 1255.98 1322.21C1254.46 1311.14 1252.94 1300.07 1251.66 1289C1247.86 1256.29 1242.86 1223.78 1237.85 1191.28C1233.53 1163.26 1229.21 1135.24 1225.67 1107.09C1223.97 1093.54 1221.8 1080.05 1219.64 1066.55C1215.14 1038.55 1210.64 1010.54 1210.29 981.983C1210.15 970.692 1213.73 961.639 1222.89 954.142C1208.2 985.189 1214.63 1015.15 1221.04 1044.99C1222.72 1052.81 1224.4 1060.62 1225.69 1068.45C1226.83 1075.32 1228.22 1082.18 1229.61 1089.03C1232.41 1102.84 1235.21 1116.64 1235.96 1130.56C1236.57 1142.05 1238.69 1153.16 1240.81 1164.24C1242.29 1172.02 1243.78 1179.79 1244.73 1187.66C1247.21 1208.04 1250.43 1228.3 1253.65 1248.56C1258.67 1280.16 1263.69 1311.76 1265.89 1343.81C1267.78 1371.15 1272.88 1398.33 1277.96 1425.34C1278.21 1426.69 1278.46 1428.04 1278.72 1429.39C1281.2 1442.62 1281.68 1456.01 1282.15 1469.11C1282.18 1469.83 1282.21 1470.54 1282.23 1471.25C1282.92 1490.31 1284.67 1509.29 1286.42 1528.26C1288.7 1552.98 1290.98 1577.68 1290.92 1602.55C1290.91 1604.05 1290.81 1605.54 1290.7 1607.1C1290.53 1609.61 1290.34 1612.26 1290.55 1615.31C1294.31 1616.13 1298.15 1616.47 1301.99 1616.33C1304.77 1569.65 1301.58 1523.14 1297.56 1474.09C1311.69 1515.21 1318.65 1555.88 1325.72 1597.21C1326.74 1603.19 1327.77 1609.17 1328.82 1615.18C1334.27 1616.27 1339.87 1616.37 1345.35 1615.46C1341.41 1606.34 1340.75 1597 1340.11 1587.85C1339.7 1582.06 1339.3 1576.35 1338.07 1570.82C1336.96 1565.79 1335.86 1560.75 1334.76 1555.72C1326.89 1519.58 1319 1483.41 1304.57 1448.97C1303.58 1446.61 1302.5 1444.24 1301.41 1441.84C1297.64 1433.56 1293.74 1425.01 1293.07 1415.79C1291.94 1400.37 1288.94 1385.23 1285.97 1370.19C1285.13 1365.95 1284.29 1361.72 1283.5 1357.5C1279.9 1338.38 1277.78 1319.09 1275.65 1299.8C1273.47 1280.02 1271.28 1260.23 1267.52 1240.61C1263.8 1221.22 1260.57 1201.73 1257.33 1182.24C1252.27 1151.76 1247.21 1121.27 1240.29 1091.1C1239.63 1088.24 1238.94 1085.35 1238.23 1082.44C1235.34 1070.45 1232.33 1057.99 1231.49 1044.4C1233.16 1045.07 1234.63 1045.57 1235.93 1046.02C1238.33 1046.84 1240.17 1047.47 1241.62 1048.62L1242.66 1049.43C1274.09 1074.27 1305.62 1099.19 1330.32 1131.43C1351.84 1159.51 1371.09 1188.95 1386.58 1221.45C1392.5 1233.87 1398.65 1246.16 1404.8 1258.45C1418.01 1284.83 1431.22 1311.2 1442.13 1338.89C1453.9 1368.75 1463.56 1399.27 1473.22 1429.78C1477.1 1442.03 1480.97 1454.27 1484.98 1466.47ZM1239.99 1030.27C1233.8 1026.66 1229.53 1021.77 1228.46 1014.34C1223.94 1001.78 1224.05 990.817 1225.57 979.91C1227.76 964.16 1238.38 959.687 1252.21 966.394C1272.25 976.109 1281.03 994.859 1289.57 1013.11C1290.47 1015.02 1291.36 1016.92 1292.26 1018.81C1300.56 1036.21 1307.35 1054.37 1314.58 1073.74C1317.82 1082.4 1321.15 1091.31 1324.75 1100.5C1320.8 1096.75 1316.95 1093.06 1313.16 1089.42C1294.34 1071.34 1277.11 1054.79 1257.46 1041.21C1251.81 1037.31 1245.92 1033.73 1239.99 1030.27Z" fill="white"/>
<path d="M619.475 904.223C665.596 882.077 680.115 893.771 680.115 893.771C680.115 893.771 678.827 906.438 688.198 938.735C707.819 1006.34 814.352 1007.51 850.285 1003.07C888.251 998.378 978.614 971.587 983.901 949.157C994.243 905.29 966.735 902.012 983.175 900.628C999.616 899.244 1069.98 899.824 1118.75 978.211C1121.22 982.181 1169 1136.87 1116.26 1136.87C1088.53 1136.87 1046.16 1053.29 1017.8 1079.79C972.576 1122.07 905.776 1158.79 822.946 1163.02C769.701 1165.74 679.413 1117.54 679.413 1117.54L628.352 1086.03C628.352 1086.03 571.805 1129.09 552.257 1118.24C526.591 1103.99 554.316 947.247 554.316 947.247C554.316 947.247 579.402 923.466 619.475 904.223Z" fill="white"/>
<path fill-rule="evenodd" clip-rule="evenodd" d="M551.985 935.978C551.985 935.978 613.28 894.406 650.362 886.848C670.263 882.792 679.244 881.319 689.764 895.858C693.618 901.183 694.126 906.76 694.614 912.106L694.614 912.108L694.614 912.109C694.684 912.878 694.754 913.643 694.833 914.401C697.57 940.603 709.774 961.104 730.747 975.636C742.502 983.783 757.152 987.835 771.025 989.298C821.263 994.593 871.606 995.279 920.375 979.043C940.073 972.485 959.1 963.677 974.705 949.064C984.267 940.112 984.387 933.545 974.716 924.932C970.924 921.555 972.067 918.655 973.327 915.456L973.327 915.456L973.327 915.455C973.737 914.416 974.159 913.345 974.428 912.216C978.789 893.934 979.802 892.162 999.241 894.537C1028.8 898.147 1058.8 904.909 1081.22 924.945C1142.05 979.321 1142.2 1009.5 1142.58 1085.52V1085.52V1085.52V1085.52C1142.64 1096.57 1142.7 1108.59 1142.95 1121.79C1143.19 1134.31 1136 1140.47 1124 1142.31C1100.22 1145.96 1084.14 1136.2 1072.57 1115.76C1067.88 1107.48 1062.4 1099.44 1054.51 1093.48C1038.29 1081.2 1030.76 1080.55 1015.52 1093.48C979.447 1124.08 936.729 1146.14 891.296 1158.61C826.795 1176.32 763.951 1171.27 703.696 1141.96C685.211 1132.97 666.981 1122.61 652.834 1106.77C648.086 1101.46 641.869 1098.45 635.347 1100.02C633.718 1100.41 632.087 1100.79 630.454 1101.18L630.451 1101.18L630.449 1101.18L630.446 1101.18L630.446 1101.18C615.296 1104.76 600.064 1108.35 586.92 1117.68C574.355 1126.61 559.747 1128.57 546.516 1122.61C534.178 1117.04 534.48 1103.15 535.688 1091.17C537.048 1077.67 537.97 1064.12 538.894 1050.55C541.001 1019.59 543.116 988.512 550.465 957.605C538.53 958.927 551.985 935.978 551.985 935.978ZM685.976 1054.73C727.975 1083.27 774.387 1093.43 824.756 1093.5C875.015 1093.58 921.712 1084.41 966.48 1057.66C934.929 1039.17 939.435 1013.52 949.624 985.346C945.815 986.397 942.257 987.299 938.886 988.154L938.885 988.155C932.03 989.894 925.949 991.436 920.108 993.628C895.951 1002.69 870.346 1005.84 845.328 1008.79C811.822 1012.74 778.017 1006.75 745.29 998.558C728.718 994.411 712.814 987.565 700.753 972.968C698.209 969.889 696.391 966.364 694.569 962.831C692.021 957.891 689.464 952.933 684.898 949.145C682.207 953.895 682.558 958.234 684.739 961.998C687.246 966.325 689.691 970.704 692.136 975.084L692.137 975.085C699.301 987.918 706.472 1000.76 715.241 1012.37C721.81 1021.06 722.877 1028.85 722.567 1040.26C707.291 1036.67 692.663 1033.45 679.417 1042.9C679.303 1046.95 681.487 1049.49 684.317 1052.77C684.851 1053.39 685.407 1054.04 685.976 1054.73ZM965.345 993.364C966.054 992.254 966.763 991.144 967.461 990.028C970.564 984.201 974.686 979.581 978.709 975.072C984.491 968.592 990.069 962.34 992.127 953.062C995.595 937.425 998.722 922.739 991.606 909.088C993.75 905.202 995.954 904.431 998.058 905.003C1000.62 905.7 1003.19 906.385 1005.75 907.071L1005.75 907.071L1005.76 907.072C1037.44 915.534 1069.03 923.972 1090.19 953.369C1109.45 980.118 1122.25 1009.23 1125.33 1042.32C1127.36 1064.11 1129.34 1085.92 1130.61 1107.77C1130.68 1109.1 1130.86 1110.49 1131.04 1111.9C1131.89 1118.61 1132.8 1125.8 1123.41 1129.05C1112 1132.99 1097.17 1128.3 1091.03 1118.48C1089.32 1115.74 1087.85 1112.84 1086.38 1109.93L1086.38 1109.93L1086.38 1109.93C1085.29 1107.77 1084.2 1105.61 1083 1103.51C1063.81 1069.85 1032.88 1051.25 998.285 1038.52C989.505 1035.28 978.641 1036.56 968.78 1037.73L968.753 1037.73C968.278 1037.79 967.805 1037.84 967.335 1037.9C957.308 1039.07 955.865 1034.22 954.693 1026.18C952.776 1013.04 959.03 1003.25 965.345 993.364ZM552.257 1096.91C553.144 1111.48 556.339 1115.06 565.441 1109.67C567.988 1108.16 570.549 1106.69 573.107 1105.21C589.847 1095.56 606.436 1086 617.713 1067.96C629.978 1048.33 647.707 1033.2 671.317 1026.69C677.52 1024.98 683.778 1025.01 690.054 1025.04C694.847 1025.07 699.651 1025.1 704.448 1024.35C703.637 1019.5 701.163 1016.42 698.777 1013.46C698.158 1012.69 697.546 1011.93 696.97 1011.15C675.85 982.434 659.473 951.98 663.706 914.459C664.522 907.241 660.185 905.515 655.428 905.744C646.038 906.195 636.853 907.369 627.635 910.76C616.694 914.787 606.565 920.338 596.442 925.886C590.292 929.257 584.143 932.627 577.817 935.652C570.93 938.945 563.65 944.087 563.688 953.163C563.729 963.158 561.698 972.766 559.669 982.367C558.711 986.899 557.753 991.429 557.014 995.998C552.599 1023.27 552.484 1050.72 552.363 1079.59L552.363 1079.59C552.339 1085.31 552.315 1091.08 552.257 1096.91ZM793.188 1107.98C827.801 1113.08 861.459 1108.12 895.301 1102.68V1102.67C924.012 1095.68 949.163 1086.12 972.737 1071.5C981.815 1065.87 992.336 1066.77 1003.61 1067.74C1008.23 1068.14 1012.98 1068.55 1017.81 1068.52C1002.17 1085.88 984.571 1097.13 967.193 1108.23C965.798 1109.12 964.403 1110.02 963.011 1110.91C936.857 1127.7 908.322 1139.93 877.92 1145.17C846.995 1150.51 816.104 1154.22 783.859 1149.61C748.65 1144.56 716.788 1133.34 687.61 1114.2C669.359 1102.23 651.588 1088.86 638.953 1070.01C658.038 1057.18 666.385 1057.84 683.757 1070.16C716.531 1093.42 754.182 1102.24 793.188 1107.98Z" fill="black"/>
<path d="M907.228 1432.47C907.071 1432.5 906.918 1432.54 906.769 1432.59L906.958 1432.55L907.228 1432.47Z" fill="white"/>
<path d="M1016.76 1417.09C1013.77 1406.62 1009.32 1396.63 1003.57 1387.43C996.206 1375.23 987.725 1363.77 978.242 1353.21C958.43 1331.84 935.974 1313.15 912.322 1296.41C895.278 1284.25 876.839 1274.34 858.105 1265.21C836.79 1254.37 814.006 1246.06 790.244 1243.39C777.889 1242.42 765.463 1243.2 753.318 1245.71C764.532 1246.74 775.652 1248.65 786.579 1251.42C801.764 1255.58 820.505 1263.47 836.934 1270.29C857.832 1279.65 878.458 1289.86 897.926 1302.06C928.034 1321.95 952.479 1341.67 976.202 1367.55C988.837 1382.46 997.084 1393.6 1005.21 1409.84C1008.98 1418.26 1011.7 1427.13 1013.31 1436.25C1014.12 1442.61 1014.06 1441.45 1014.16 1445.17C1014.16 1445.65 1014.13 1446.13 1014.11 1446.6C1014.01 1447.61 1013.89 1448.62 1013.71 1449.62L1013.7 1449.69C1011.07 1461.64 1004.72 1470.35 994.17 1478.16C967.295 1495.92 940.057 1504.93 908.224 1503.51C887.241 1502.69 865.666 1497.28 848.213 1492.35C826.598 1486.35 805.525 1478.47 785.223 1468.79C767.891 1460.44 751.005 1450.82 736 1438.57C719.029 1424.69 704.32 1412.85 690.05 1394.06C680.787 1381.74 675.426 1374.1 669.857 1359.73C669.573 1358.84 669.289 1357.95 669.005 1357.06C667.456 1351.44 668.065 1354.45 667.317 1348.43C667.478 1344.78 666.517 1340.08 669.755 1334.56C674.704 1325.66 688.408 1314.29 703.763 1309.41C711.283 1307.05 725.817 1304.7 736.908 1304.56C745.062 1304.42 753.153 1305.84 761.186 1307.13C777.276 1310.02 790.516 1314.27 806.86 1321.16C821.805 1327.38 836.388 1334.46 850.537 1342.39C880.262 1359.76 914.847 1386.48 922.39 1412.71C922.53 1413.28 922.671 1413.85 922.811 1414.42C922.826 1414.49 922.839 1414.56 922.855 1414.63C923.099 1415.92 923.278 1417.22 923.391 1418.53C923.391 1418.63 923.401 1418.74 923.4 1418.84C923.395 1419.05 923.391 1419.22 923.388 1419.37C923.333 1419.79 923.267 1420.21 923.21 1420.55C923.101 1421 922.976 1421.45 922.832 1421.89C921.358 1426.13 915.665 1429.81 907.229 1432.47C907.519 1432.41 907.655 1432.43 907 1432.54L906.959 1432.55C906.845 1432.59 906.735 1432.63 906.62 1432.66C906.668 1432.63 906.718 1432.61 906.77 1432.59C901.286 1433.7 895.71 1434.28 890.119 1434.31C880.439 1434.46 870.877 1432.71 861.496 1430.42C855.145 1428.93 848.914 1426.94 842.855 1424.49C835.947 1421.47 829.223 1418.02 822.721 1414.17C814.154 1409.6 799.291 1398.77 795.318 1395.06C789.326 1389.77 783.416 1384.24 778.665 1377.73C776.609 1374.6 775.759 1373.42 774.733 1369.71C774.751 1369.56 774.769 1369.42 774.784 1369.31C774.829 1369.14 774.875 1368.97 774.926 1368.81C774.966 1368.72 775.013 1368.61 775.074 1368.48L775.145 1368.34C775.497 1367.86 775.876 1367.4 776.28 1366.96C776.458 1366.76 776.586 1366.62 776.67 1366.53C776.759 1366.46 776.843 1366.38 776.934 1366.32C779.791 1364.36 782.913 1362.84 786.201 1361.82C790.25 1360.65 794.436 1360.06 798.643 1360.05C813.055 1360.34 823.571 1363.14 836.079 1368.02C839.114 1369.31 842.103 1370.71 845.014 1372.26C841.441 1369 837.653 1366 833.679 1363.27C820.603 1354.75 803.954 1347 788.143 1348.53C775.481 1350.28 767.904 1355.46 767.626 1369.43C767.436 1382.11 775.946 1392.63 784.461 1400.94C790.908 1407.24 797.826 1413.02 805.151 1418.23C816.116 1425.92 827.747 1432.57 839.899 1438.1C847.739 1441.28 855.823 1443.79 864.069 1445.6C873.859 1447.92 883.896 1449.36 893.961 1448.76C900.782 1448.39 907.705 1447.57 914.027 1444.76C939.584 1434.62 930.937 1400.96 917.866 1383.55C907.871 1368.84 894.205 1357.35 880.253 1346.75C864.11 1334.37 846.365 1324.39 828.091 1315.71C813.878 1309.12 799.497 1302.73 784.514 1298.18C771.361 1294.2 757.863 1291.53 744.208 1290.2C736.285 1289.75 728.338 1290.13 720.494 1291.36C704.738 1293.27 689.05 1298.66 677.06 1309.6C671.543 1314.1 667.01 1319.73 663.751 1326.13C660.252 1333.88 659.822 1342.7 660.375 1351.1C661.988 1370.48 672.477 1387.74 683.69 1402.92C692.693 1415.58 703.535 1426.66 715.194 1436.75C726.718 1446.66 738.242 1456.71 751.031 1464.91C777.064 1481.6 805.665 1493.81 834.975 1503.05C863.98 1511.75 893.865 1519.84 924.352 1517.94C943.051 1516.68 961.27 1511.01 978.105 1502.71C986.332 1498.38 994.672 1493.99 1001.69 1487.73C1012.47 1478.23 1019.36 1464.93 1021.01 1450.47C1022.02 1439.21 1019.69 1427.91 1016.76 1417.09Z" fill="white"/>
<path fill-rule="evenodd" clip-rule="evenodd" d="M1137.26 1468.5L1137.26 1468.5C1139.25 1471.64 1141.27 1474.84 1142.16 1478.51C1143.25 1483.4 1143.44 1489.96 1139.16 1493.32C1136.49 1494.75 1133.42 1495.05 1130.44 1495.34C1129.94 1495.39 1129.44 1495.44 1128.95 1495.49C1123.57 1495.89 1118.18 1496.02 1112.8 1495.86L1112.4 1495.84C1109.53 1501.33 1106.73 1506.86 1104.12 1512.49C1105.54 1507.21 1107.34 1501.54 1109.34 1495.72C1106.59 1495.6 1103.84 1495.42 1101.08 1495.2C1101.54 1496.44 1102.01 1497.68 1102.49 1498.88C1103.14 1500.51 1103.82 1502.11 1104.51 1503.72C1104.36 1503.48 1104.19 1503.23 1104.03 1502.99C1103.82 1502.67 1103.6 1502.35 1103.39 1502.02C1101.92 1499.74 1100.54 1497.42 1099.24 1495.04C1091.06 1494.36 1082.96 1492.88 1075.05 1490.63C1074.32 1490.37 1073.55 1490.13 1072.77 1489.87C1067.72 1488.24 1061.94 1486.37 1060.36 1480.81C1058.98 1475.6 1060.07 1469.35 1064.61 1466.12C1070.45 1461.35 1076.65 1457.04 1083.14 1453.25C1082.33 1449.99 1081.71 1446.69 1081.29 1443.36C1080.57 1435.69 1079.53 1419.93 1090.42 1420.19C1094.88 1421.15 1098.46 1424.25 1101.88 1427.23C1102.42 1427.69 1102.95 1428.15 1103.48 1428.6C1105.2 1430.16 1106.89 1431.76 1108.54 1433.4C1109.87 1434.72 1111.17 1436.07 1112.46 1437.42C1116.33 1435.74 1120.29 1434.31 1124.34 1433.13C1127.46 1432.24 1130.85 1431.62 1134.01 1432.64C1137.87 1434.66 1137.97 1440.07 1137.59 1443.95C1137.03 1446.81 1136.08 1449.57 1134.75 1452.15C1133.61 1454.65 1132.43 1457.13 1131.24 1459.61C1133.24 1462.33 1135.15 1465.13 1136.95 1468.01C1137.05 1468.17 1137.15 1468.33 1137.25 1468.49L1137.26 1468.5ZM1128.33 1446.73C1126.57 1447.07 1124.84 1447.53 1123.14 1448.11C1123 1448.16 1122.86 1448.21 1122.72 1448.26L1122.72 1448.26C1122.58 1448.31 1122.44 1448.36 1122.31 1448.41C1123.52 1449.85 1124.72 1451.31 1125.9 1452.78C1126.75 1450.67 1127.56 1448.65 1128.33 1446.73ZM1090.36 1434.64L1090.42 1434.66C1091.79 1435.27 1093.11 1435.99 1094.35 1436.83C1096.94 1438.59 1099.37 1440.58 1101.6 1442.78C1097.29 1445.05 1093.03 1447.43 1088.8 1449.88C1087.75 1443.72 1087.25 1438.31 1087.57 1435.53C1087.57 1435.47 1087.58 1435.42 1087.59 1435.36L1087.59 1435.36L1087.59 1435.36L1087.59 1435.36C1087.6 1435.32 1087.6 1435.28 1087.61 1435.24C1087.62 1435.2 1087.64 1435.17 1087.66 1435.14C1087.67 1435.11 1087.69 1435.08 1087.7 1435.05C1087.99 1434.91 1088.29 1434.78 1088.6 1434.67C1088.61 1434.67 1088.62 1434.66 1088.63 1434.66C1088.64 1434.66 1088.65 1434.66 1088.65 1434.66C1089.22 1434.56 1089.8 1434.56 1090.36 1434.64ZM1087 1466.11C1082.18 1468.98 1077.42 1471.97 1072.87 1475.25C1079.11 1477.34 1085.54 1478.82 1092.05 1479.65C1091.08 1477.23 1090.14 1474.79 1089.23 1472.35C1088.47 1470.28 1087.72 1468.2 1087 1466.11ZM1096.22 1480.17C1094.6 1474.57 1093.13 1468.88 1091.77 1463.35L1091.76 1463.32C1092.71 1462.77 1093.66 1462.23 1094.61 1461.68C1100.17 1458.6 1105.75 1455.51 1111.5 1452.81C1114.9 1456.46 1118.18 1460.22 1121.35 1464.09C1119.13 1469.62 1116.82 1475.44 1114.59 1481.3C1108.41 1481.18 1102.21 1480.84 1096.22 1480.17ZM1126.02 1470.05C1124.08 1473.82 1122.11 1477.57 1120.11 1481.31C1124.5 1481.31 1128.89 1481.02 1133.24 1480.45C1132.92 1479.92 1132.61 1479.42 1132.37 1479.03C1130.34 1475.97 1128.22 1472.98 1126.02 1470.05Z" fill="white"/>
<path d="M866.187 1387.68C868.209 1394.69 869.826 1398.93 862.742 1400.63C857.227 1401.82 851.537 1401.15 845.949 1401.09C845.2 1401.07 844.85 1400.97 845.807 1401.42C848.899 1403.04 852.162 1404.3 855.533 1405.16C868.402 1408.5 873.539 1398.02 866.187 1387.68Z" fill="white"/>
<path d="M1019.35 1525.51C1014.53 1528.14 1009.28 1529.8 1004.11 1531.56C995.817 1534.17 991.2 1535.41 982.486 1537.4C962.906 1541.38 942.95 1543.1 922.995 1542.52C899.917 1541.49 877.04 1537.66 854.845 1531.1C836.556 1525.86 808.256 1518.83 781.153 1507.86C779.187 1507.07 777.227 1506.27 775.272 1505.46C794.112 1516.33 813.156 1526.89 832.743 1536.29C850.538 1545.03 869.643 1550.46 889.118 1553.52C908.198 1556.85 927.591 1557.9 946.907 1556.64C957.487 1555.93 968.152 1554.97 978.421 1552.17C992.433 1548.17 1006.15 1542.35 1018.23 1534.01C1027.07 1527.4 1033.58 1518.26 1040.06 1509.38C1033.36 1515.27 1027.23 1521.08 1019.35 1525.51Z" fill="white"/>
<path d="M997.676 1309.95C996.234 1309.16 994.814 1308.33 993.393 1307.5C995.913 1309.89 998.345 1312.38 1000.75 1314.89C1010.16 1324.6 1018.68 1335.17 1026.21 1346.47C1036.7 1361.09 1042.66 1371.56 1052.27 1389.24C1043.49 1356.88 1028.74 1325.09 997.676 1309.95Z" fill="white"/>
<path d="M617.37 1314.85C622.691 1306.11 636.611 1288.92 646.993 1282.1C655.748 1275.93 665.022 1270.08 675.28 1266.98C680.653 1265.33 690.057 1264.58 696.883 1264.44C689.03 1262.47 680.974 1260.55 672.837 1261.42C662.368 1262.66 652.291 1266.79 643.165 1272.08C629.243 1280.43 618.704 1293.58 610.535 1307.62C602.727 1321.77 599.188 1338.32 599.393 1354.5C600.195 1374.98 607.443 1394.71 618.063 1411.95C629.094 1428.84 642.896 1443.64 656.877 1457.99C661.928 1463.11 667.043 1468.15 672.219 1473.13C666.678 1466.53 661.295 1459.8 656.07 1452.94C645.293 1438.79 635.246 1424.07 625.969 1408.85C611.171 1384.37 604.423 1363.33 607.12 1343.63C608.865 1333.01 610.217 1326.88 617.37 1314.85Z" fill="white"/>
<path fill-rule="evenodd" clip-rule="evenodd" d="M735.703 1512.2C733.899 1509 731.932 1505.9 729.81 1502.91C729.62 1502.65 729.424 1502.4 729.229 1502.15L729.229 1502.15L729.229 1502.15L729.228 1502.15L729.228 1502.15C729.057 1501.93 728.885 1501.71 728.716 1501.49C729.175 1500.6 729.664 1499.73 730.154 1498.86L730.154 1498.86L730.154 1498.86L730.154 1498.86C731.433 1496.58 732.714 1494.29 733.464 1491.78C734.274 1488.14 734.299 1483.22 731.105 1480.79C729.657 1480.31 728.097 1480.33 726.656 1480.82C724.131 1481.41 721.66 1482.22 719.273 1483.25C717.826 1483.85 716.4 1484.5 714.989 1485.17C708.151 1477.8 700.921 1470.82 693.33 1464.26C692.804 1463.85 692.296 1463.4 691.787 1462.96L691.787 1462.96C690.694 1461.99 689.596 1461.02 688.294 1460.42C684.771 1459 683.175 1463.71 682.869 1466.51C682.319 1473.18 683.737 1479.81 685.128 1486.31C685.239 1486.83 685.351 1487.35 685.461 1487.87C686.556 1492.38 687.843 1496.83 689.234 1501.25C687.857 1502.23 686.482 1503.2 685.107 1504.16L684.447 1504.64L684.446 1504.64L684.446 1504.64L684.445 1504.64C681.085 1507.07 677.724 1509.49 674.426 1512.01C671.331 1514.37 667.888 1517.04 667.258 1521.2C666.558 1524.89 666.823 1529.85 670.215 1532.05C673.953 1533.38 677.947 1533.7 681.893 1534.01L681.895 1534.01C682.711 1534.07 683.526 1534.14 684.336 1534.21C689.751 1534.56 695.182 1534.59 700.6 1534.31C703.008 1541.27 705.417 1548.23 708.067 1555.1C708.353 1556.04 708.823 1556.92 709.446 1557.68C708.726 1556.37 708.446 1554.9 708.167 1553.44C708.045 1552.8 707.923 1552.16 707.765 1551.53C707.282 1549.26 706.796 1546.98 706.31 1544.71L706.309 1544.7L706.308 1544.7L706.307 1544.69L706.306 1544.69L706.306 1544.69L706.306 1544.68C705.554 1541.16 704.802 1537.64 704.059 1534.12C706.143 1533.98 708.226 1533.82 710.307 1533.63C709.113 1538.49 708.194 1543.41 707.554 1548.38C709.006 1543.28 710.756 1538.28 712.796 1533.39C715.34 1533.14 717.881 1532.87 720.418 1532.58C721.472 1532.45 722.528 1532.33 723.584 1532.21L723.585 1532.21C726.241 1531.91 728.899 1531.61 731.534 1531.14C732.788 1530.93 734.012 1530.56 735.181 1530.05C736.288 1529.26 737.152 1528.16 737.671 1526.89C739.808 1522.02 738.509 1516.48 735.703 1512.2ZM690.9 1477.85C695.727 1481.93 700.344 1486.26 704.734 1490.82C701.492 1492.81 698.317 1494.93 695.177 1497.09C693.438 1490.08 691.876 1483.38 690.9 1477.85ZM693.396 1513.68C690.538 1515.64 687.704 1517.64 684.896 1519.68V1519.68C688.452 1519.9 692.012 1519.96 695.575 1519.91C694.846 1517.83 694.12 1515.76 693.396 1513.68ZM700.866 1519.74C700.118 1516.67 699.312 1513.46 698.488 1510.21C700.085 1509.13 701.685 1508.06 703.288 1507C706.475 1505 710.214 1502.7 713.979 1500.56C715.673 1502.44 717.434 1504.46 719.15 1506.52C718.392 1508.47 717.643 1510.43 716.934 1512.4C716.154 1514.48 715.416 1516.57 714.699 1518.68C710.092 1519.16 705.481 1519.54 700.866 1519.74V1519.74ZM721.007 1516.12C720.666 1516.78 720.333 1517.43 720.005 1518.08V1518.08C722.476 1517.79 724.942 1517.47 727.403 1517.14C726.258 1515.5 724.869 1513.63 723.323 1511.66C723.133 1512.02 722.943 1512.39 722.752 1512.75C722.167 1513.87 721.582 1514.99 721.007 1516.12Z" fill="white"/>
<path fill-rule="evenodd" clip-rule="evenodd" d="M986.392 1235.35C985.146 1233.31 983.318 1231.7 981.154 1230.75C978.473 1229.35 975.749 1228.03 973.021 1226.74C973.246 1212.21 973.243 1197.67 972.624 1183.15C972.388 1181.15 971.478 1177.51 968.877 1178.38C967.336 1179.7 966.272 1181.66 965.23 1183.58C964.697 1184.56 964.169 1185.53 963.587 1186.4C958.24 1195.63 951.989 1204.83 945.271 1214.25C935.514 1209.99 925.681 1205.92 915.734 1202.14C911.492 1200.54 907.246 1198.95 902.958 1197.48C902.332 1197.33 901.693 1197.1 901.047 1196.86C899.259 1196.22 897.421 1195.56 895.665 1196.41C891.312 1199.83 891.789 1207.01 893.904 1211.65C896.505 1216.53 900.245 1220.66 903.923 1224.71L904.097 1224.91C909.639 1230.89 915.553 1236.5 921.519 1242.04C922.023 1242.5 922.53 1242.97 923.038 1243.43L923.038 1243.43L923.038 1243.43L923.038 1243.43C923.427 1243.79 923.815 1244.14 924.203 1244.5C919.987 1247.19 915.768 1249.87 911.544 1252.54C910.641 1253.16 909.696 1253.74 908.749 1254.31L908.749 1254.31C906.716 1255.54 904.675 1256.78 903.026 1258.49C901.703 1260.6 901.722 1263.31 903.075 1265.39C903.773 1266.01 904.704 1266.29 905.617 1266.13C907.191 1266.09 908.759 1265.92 910.308 1265.64C915.549 1264.75 920.732 1263.57 925.914 1262.38L925.915 1262.38L925.916 1262.38L925.917 1262.38C927.656 1261.98 929.396 1261.58 931.138 1261.19L940.196 1259.11C943.619 1262.21 947.048 1265.3 950.483 1268.39C951.229 1268.98 952.121 1269.79 953.111 1270.69C957.376 1274.56 963.464 1280.08 967.565 1276.47C971.007 1273.12 971.397 1267.96 971.754 1263.23C971.816 1262.42 971.876 1261.62 971.951 1260.84C972.148 1257.87 972.292 1254.9 972.41 1251.93C974.527 1251.5 976.646 1251.07 978.767 1250.66C979.238 1250.54 979.718 1250.44 980.2 1250.34C981.641 1250.04 983.098 1249.74 984.365 1248.98C988.366 1245.98 988.255 1239.61 986.392 1235.35ZM966.539 1194.97C966.248 1202.65 966.119 1212.27 965.988 1222.05L965.969 1223.47C962.82 1222.04 959.664 1220.62 956.502 1219.22C958.521 1217.22 960.447 1215.13 962.278 1212.95C959.293 1214.37 956.433 1216.06 953.728 1217.98C953.097 1217.7 952.466 1217.42 951.833 1217.14C951.118 1216.82 950.402 1216.5 949.685 1216.19L949.684 1216.19C949.195 1215.97 948.706 1215.76 948.217 1215.54C954.81 1209.16 960.935 1202.28 966.539 1194.97ZM909.896 1214.68C912.14 1217.05 914.378 1219.31 916.219 1221.04C924.686 1229.17 933.33 1237.1 942.028 1244.97C944.839 1244.08 947.663 1243.23 950.508 1242.45C955.532 1241.02 960.62 1239.85 965.719 1238.77C965.721 1238.71 965.722 1238.66 965.724 1238.61L965.724 1238.61L965.724 1238.6C965.727 1238.48 965.731 1238.35 965.731 1238.22C959.887 1235.52 953.976 1232.95 948.07 1230.38L948.069 1230.38L948.069 1230.38L948.068 1230.38L948.066 1230.38C946.87 1229.86 945.674 1229.34 944.478 1228.82C942.647 1229.96 940.752 1230.99 938.805 1231.91C939.962 1230.54 941.169 1229.21 942.399 1227.91C940.704 1227.17 939.014 1226.42 937.328 1225.67L937.305 1225.66C937.207 1225.74 937.11 1225.83 937.013 1225.92L937.011 1225.92L937.01 1225.92L937.009 1225.92C936.854 1226.06 936.699 1226.2 936.542 1226.34C936.666 1226.17 936.788 1226 936.91 1225.83L936.911 1225.83L937.099 1225.57C928.093 1221.8 919.058 1218.05 909.896 1214.68ZM915.113 1254.79C918.391 1251.59 921.624 1248.35 924.813 1245.05C926.349 1246.47 927.888 1247.88 929.43 1249.29C924.631 1251.05 919.863 1252.9 915.113 1254.79ZM954.294 1255.9L954.195 1255.92C954.83 1256.49 955.465 1257.06 956.101 1257.63C956.377 1257.83 956.737 1258.15 957.176 1258.54C958.634 1259.82 960.968 1261.88 964.025 1263.12C964.188 1263.14 964.352 1263.15 964.517 1263.15C964.821 1260.48 965.056 1257.18 965.241 1253.44C961.589 1254.24 957.942 1255.07 954.294 1255.9Z" fill="white"/>
<path d="M994.984 802.512C1004.77 803.146 1013.91 801.319 1022.34 795.793C1031.31 789.912 1032.37 778.333 1023.89 771.696C1014.26 764.166 1003.51 764.498 993.288 769.778C972.707 780.412 952.495 789.439 930.809 772.293C925.738 768.282 919.508 765.841 913.991 762.383C905.168 756.846 895.852 756.601 886.411 759.72C875.491 763.329 866.618 777.081 869.824 786.617C873.881 798.683 884.606 797.643 893.944 796.298C904.229 794.669 914.748 795.649 924.576 799.154C946.957 807.242 969.684 806.848 994.984 802.512Z" fill="white"/>
<path fill-rule="evenodd" clip-rule="evenodd" d="M1001.65 817.508C1007.06 817.049 1012.49 816.589 1017.95 816.201C1040.73 815.834 1055.8 784.941 1040.45 764.773C1025.85 745.586 1001.87 742.504 982.481 759.004C970.862 768.89 955.629 770.984 947.139 761.909C937.654 751.771 925.857 746.239 913.581 743.016C883.759 735.19 858.946 749.887 855.528 784.048C853.536 803.974 874.699 815.306 894.98 813.381C896.572 813.23 898.181 813.016 899.792 812.801C905.214 812.08 910.666 811.354 915.645 813.009C943.91 822.404 972.442 819.985 1001.65 817.508ZM1022.34 795.793C1013.91 801.319 1004.77 803.146 994.985 802.512C969.684 806.848 946.957 807.242 924.576 799.154C914.748 795.649 904.229 794.669 893.944 796.298C884.606 797.643 873.881 798.683 869.824 786.617C866.618 777.081 875.491 763.329 886.411 759.72C895.852 756.601 905.168 756.845 913.991 762.383C916.141 763.73 918.399 764.923 920.655 766.115C924.188 767.982 927.714 769.845 930.809 772.293C952.495 789.439 972.707 780.412 993.289 769.777C1003.51 764.498 1014.26 764.166 1023.89 771.696C1032.37 778.333 1031.31 789.912 1022.34 795.793Z" fill="black"/>
<path d="M919.24 781.068C907.037 793.208 892.668 793.567 878.321 791.495C866.069 789.727 857.087 770.662 861.066 757.14C867.137 736.512 896.332 719.309 917.699 721.42C945.089 724.132 972.464 727.998 1000.24 722.208C1025.89 716.862 1050.52 731.91 1055.66 753.712C1061.09 776.751 1053.43 785.388 1030.43 782.96C1019.18 781.821 1008.47 777.499 999.488 770.479C973.841 750.533 941.863 761.011 919.24 781.068Z" fill="black"/>
<path d="M995.271 682.823C1000.93 678.746 1005.16 672.921 1007.35 666.203C1010.16 657.997 1008.42 648.878 1002.81 642.345C997.473 636.053 990.214 638.551 983.387 640.639C979.197 641.919 973.792 646.119 970.978 639.375C968.53 633.499 972.858 628.956 977.16 626.064C985.587 620.399 994.776 619.357 1004.48 623.223C1016.6 628.054 1021.21 638.324 1022.95 650.137C1029.73 696.274 991.385 706.853 961.005 704.902C958.831 704.656 956.751 703.856 954.957 702.576C951.52 700.248 946.111 698.563 947.614 693.061C949.325 686.802 954.495 687.855 959.482 688.867C971.743 691.354 983.41 689.071 995.271 682.823Z" fill="black"/>
<path d="M842.238 579.096C847.324 566.539 851.305 548.428 866.801 555.61C887.891 565.387 880.934 587.662 876.669 605.015C875.06 611.562 861.861 621.613 858.053 619.99C841.442 612.906 838.406 597.31 842.238 579.096Z" fill="black"/>
<path d="M1073.57 617.475C1064.82 625.253 1056.26 625.403 1050.99 615.91C1041.69 599.179 1042.2 581.669 1054.38 566.632C1056.92 563.491 1068.4 562.845 1070.98 565.649C1085.2 581.151 1085.81 598.734 1073.57 617.475Z" fill="black"/>
<path d="M1090.9 506.008C1093.62 513.63 1096.57 520.14 1098.18 526.982C1099.36 532.001 1099.8 537.727 1092.9 540.096C1085.22 542.729 1084.21 536.521 1082.17 531.905C1079.98 527.087 1078.09 522.131 1076.52 517.068C1075.01 512.036 1072.15 509.848 1067.02 509.993C1061.87 510.139 1058.87 513.031 1057.47 517.55C1055.76 523.033 1054.52 528.685 1053.34 534.321C1052.36 539.026 1049.09 539.28 1045.44 539.134C1041.82 538.989 1040.03 536.943 1039.47 533.397C1036.14 512.38 1045.68 493.491 1065.81 490.353C1078.32 488.404 1085.21 495.04 1090.9 506.008Z" fill="black"/>
<path d="M841.694 509.582C857.134 488.15 871.74 484.076 886.505 497.772C895.887 506.472 895.43 519.9 897.493 531.758C898.042 534.905 895.352 537.789 892.081 538.33C888.512 539.067 884.925 537.154 883.472 533.74C881.781 529.713 881.306 525.169 879.845 521.02C878.1 516.065 876.547 510.671 869.989 510.112C863.462 509.556 859.131 513.198 856.473 518.545C852.785 525.965 851.622 539.326 840.429 533.836C829.862 528.653 838.544 518.404 841.694 509.582Z" fill="black"/>
<path d="M597.719 486.383C592.465 452.902 605.055 384.823 618.003 357.492C630.951 330.161 666.711 267.892 691.154 251.963C715.596 236.034 770.559 211.997 789.107 201.672C807.655 191.347 850.706 181.885 879.914 183.122C909.122 184.359 946.12 190.95 977.027 202.909C1007.93 214.868 1051.86 235.474 1074.14 260.209C1096.42 284.944 1100.02 282.961 1118.78 313.063C1137.54 343.165 1140.37 361.827 1147.77 372.847C1155.17 383.867 1180.17 398.347 1200.21 423.433C1220.25 448.519 1229.21 452.28 1235.6 475.274C1242 498.268 1243.01 504.226 1238.16 512.482C1233.31 520.738 1222.94 533.804 1210.45 533.804C1197.95 533.804 1181.92 535.904 1163.55 522.098C1145.17 508.292 1128.41 504.957 1114.94 488.234C1101.47 471.511 1087.65 473.6 1071.88 458.134C1056.1 442.668 1043.61 446.159 1014.32 436.809C985.027 427.459 977.651 446.425 949.936 433.465C922.222 420.505 916.68 431.793 897.068 443.917C877.455 456.041 858.268 468.583 837.376 475.69C816.485 482.797 768.731 496.59 748.692 494.085C728.653 491.58 703.498 481.125 681.753 495.339C660.008 509.553 652.333 514.152 643.806 517.079C635.28 520.006 636.111 519.297 628.052 512.189C619.993 505.081 621.794 504.579 614.12 502.071C606.446 499.563 597.719 486.383 597.719 486.383Z" fill="white"/>
<path fill-rule="evenodd" clip-rule="evenodd" d="M632.301 544.873C631.276 542.34 630.408 539.842 629.565 537.416C627.877 532.562 626.29 527.995 623.751 524.009C616.758 513.027 621.344 506.991 631.024 501.493C636.928 498.139 642.524 494.249 648.11 490.367L648.11 490.367L648.112 490.365C649.228 489.59 650.342 488.815 651.459 488.045C671.471 474.245 691.983 470.986 714.9 482.064C736.654 492.58 759.467 489.191 782.397 484.393C831.043 474.216 874.417 453.072 916.23 427.317C943.399 410.476 973.13 397.986 1004.31 390.317C1037.69 382.27 1072.11 383.859 1105.78 394.408C1129.49 401.838 1152.87 409.831 1172.15 425.38C1195.82 444.48 1218.38 465.008 1228.09 495.08C1228.25 495.596 1228.44 496.137 1228.64 496.695L1228.64 496.696C1230.18 501.11 1232.07 506.513 1225.77 508.18C1221.15 509.406 1219.92 505.502 1218.75 501.787C1218.39 500.653 1218.04 499.537 1217.59 498.59C1201.07 463.105 1173.99 437.626 1139.18 419.702C1099.29 399.166 1056.68 394.255 1012.73 400.964C999.99 402.909 988.208 407.927 975.874 413.181C968.304 416.406 960.526 419.718 952.191 422.464C958.598 425.792 963.861 426.296 968.963 426.784L968.969 426.785C969.626 426.848 970.28 426.91 970.934 426.979C1019.72 432.086 1066.7 442.843 1107.13 471.943C1113.53 476.55 1119.41 481.842 1125.3 487.137C1130.56 491.872 1135.82 496.608 1141.46 500.859C1141.93 501.207 1142.39 501.555 1142.85 501.904L1142.96 501.985C1158.19 513.48 1173.49 525.019 1193.36 528.695C1222.3 534.049 1241.48 514.877 1233.92 487.171C1225.48 456.23 1203.68 433.98 1180.94 413.071C1154.56 388.82 1123.97 370.996 1089.62 358.723C1046.9 343.46 1002.98 341.2 958.74 345.143C914.671 349.07 871.119 357.534 829.684 373.314C808.764 381.281 788.507 390.999 768.296 400.695L768.295 400.695L768.286 400.699C765.543 402.015 762.802 403.33 760.059 404.641C719.489 424.025 684.336 451.18 649.193 478.329C643.645 482.615 638.097 486.9 632.529 491.155C630.339 492.828 628.752 495.164 627.146 497.528C624.202 501.859 621.197 506.282 614.31 506.881C612.517 495.831 620.187 489.236 626.599 483.724C627.092 483.3 627.578 482.882 628.052 482.469C651.63 461.91 675.51 441.516 702.321 424.938C709.432 420.538 711.54 415.005 712.104 407.015C715.42 358.207 728.545 310.524 750.726 266.709C753.147 261.911 755.468 257.063 757.79 252.21C764.82 237.523 771.866 222.801 781.782 209.341C722.427 231.041 677.831 269.426 645.052 322.568C612.15 375.909 604.111 434.319 606.806 497.309C597.809 492.317 597.424 486.584 597.05 480.742C594.184 435.954 599.268 392.161 617.076 350.634C634.72 309.483 660.149 273.449 695.623 244.78C722.529 223.036 751.692 205.251 785.342 195.318C791.709 193.439 793.831 188.591 796.128 183.344C796.276 183.007 796.424 182.668 796.575 182.328C802.786 168.28 806.338 167.5 817.568 177.458C823.155 182.412 828.48 183.845 836.361 182.38C869.132 176.29 901.78 177.69 934.624 184.07C1007.11 198.152 1064.93 235.145 1109.98 291.411C1127.85 313.738 1141.77 338.939 1150.02 366.611C1152.76 375.678 1158.59 383.544 1166.55 388.885C1196.99 410.249 1221.53 436.546 1238.04 469.799C1245.48 484.799 1248.14 501.358 1239.9 515.064C1229.97 531.597 1214.36 540.891 1191.76 536.997C1173.36 533.826 1158.33 526.297 1144.29 515.397C1139.24 511.476 1134.25 507.466 1129.27 503.458L1129.27 503.454L1129.27 503.454C1108.55 486.791 1087.84 470.137 1062.54 459.874C1022.03 443.259 978.332 435.405 934.44 436.845C920.55 437.295 908.801 444.693 897.242 451.971C894.467 453.718 891.703 455.458 888.923 457.094C847.636 481.372 801.829 491.949 755.2 499.958C745.29 501.658 735.103 500.119 725.506 497.299C717.871 495.055 714.186 498.071 711.277 504.254C700.852 526.392 692.847 549.054 692.593 573.894C692.515 581.444 691.779 588.986 691.043 596.531C690.661 600.442 690.279 604.354 689.989 608.268C689.537 614.359 686.336 617.829 680.138 617.954C678.628 617.984 677.114 618.047 675.594 618.109H675.594C669.31 618.369 662.914 618.633 656.217 616.654C652.884 601.635 647.516 587.204 642.057 572.527C638.688 563.469 635.283 554.316 632.301 544.873ZM961.41 213.473C926.525 197.909 889.381 192.102 851.591 191.113C816.125 190.185 791.578 208.962 777.313 239.266C774.684 244.85 772.01 250.415 769.337 255.98C756.974 281.715 744.604 307.463 736.549 335.197C729.882 358.146 726.452 381.23 722.614 407.057L722.613 407.058C722.39 408.558 722.166 410.069 721.939 411.589C834.841 348.033 952.492 318.221 1080.62 341.97C1069.24 310.488 1047.85 287.882 1026.79 265.627L1026.76 265.589C1026.18 264.982 1025.61 264.376 1025.04 263.77C1006.98 244.667 987.336 226.522 961.41 213.469V213.473ZM992.911 217.151C1009.98 222.85 1025.76 230.623 1039.67 241.866V241.862C1086.62 274.309 1117.58 316.424 1137.84 366.765C1127.14 363.556 1117.51 358.75 1108 354.002C1105.03 352.517 1102.07 351.038 1099.09 349.615C1094.44 347.398 1091.58 341.044 1088.91 335.129C1088.24 333.643 1087.58 332.184 1086.91 330.826C1065.38 287.175 1033.6 251.866 995.387 221.706C993.942 220.598 993.043 218.944 992.911 217.151Z" fill="black"/>
</svg>
